<svg xmlns="http://www.w3.org/2000/svg" xmlns:xlink="http://www.w3.org/1999/xlink" width="500" zoomAndPan="magnify" viewBox="0 0 375 374.999991" height="500" preserveAspectRatio="xMidYMid meet" version="1.0"><defs><g/><clipPath id="50260244f7"><path d="M 61 22.097656 L 313 22.097656 L 313 149 L 61 149 Z M 61 22.097656 " clip-rule="nonzero"/></clipPath><clipPath id="c58d11f9a4"><path d="M 130 83 L 367.433594 83 L 367.433594 140 L 130 140 Z M 130 83 " clip-rule="nonzero"/></clipPath><clipPath id="0271dc8ff4"><path d="M 61 148 L 313 148 L 313 274.097656 L 61 274.097656 Z M 61 148 " clip-rule="nonzero"/></clipPath><clipPath id="096773b098"><path d="M 5.933594 156 L 244 156 L 244 213 L 5.933594 213 Z M 5.933594 156 " clip-rule="nonzero"/></clipPath></defs><g clip-path="url(#50260244f7)"><path fill="#ffffff" d="M 310.300781 23.007812 C 310.699219 22.960938 311.074219 23.035156 311.421875 23.234375 C 312.117188 23.628906 312.460938 24.757812 312.460938 26.617188 L 312.460938 68.132812 C 312.464844 69.082031 312.289062 69.996094 311.929688 70.875 C 311.8125 71.175781 311.769531 71.488281 311.804688 71.808594 C 311.898438 72.628906 311.667969 73.339844 311.105469 73.941406 C 310.886719 74.171875 310.757812 74.449219 310.722656 74.765625 C 310.617188 75.859375 309.96875 76.261719 308.761719 75.996094 C 306.003906 75.355469 304.589844 73.5 304.53125 70.402344 C 304.3125 59.167969 304.3125 47.929688 304.53125 36.6875 C 304.566406 34.734375 304.328125 32.8125 303.8125 30.929688 C 303.726562 30.605469 303.554688 30.34375 303.292969 30.136719 C 303.03125 29.929688 302.734375 29.820312 302.398438 29.808594 L 135.339844 29.867188 C 135.019531 29.894531 134.714844 29.976562 134.425781 30.113281 C 134.070312 30.25 133.699219 30.3125 133.316406 30.300781 L 74.417969 30.300781 C 72.828125 30.277344 71.246094 30.390625 69.675781 30.632812 C 69.535156 30.660156 69.421875 30.730469 69.332031 30.839844 C 69.246094 30.949219 69.203125 31.074219 69.203125 31.214844 C 69.058594 67.902344 68.996094 104.589844 69.015625 141.273438 C 69.015625 141.351562 69.015625 142.0625 69.136719 143.386719 C 69.320312 146.550781 67.808594 148.242188 64.601562 148.457031 C 64.265625 148.476562 63.984375 148.363281 63.753906 148.125 C 63.125 147.433594 62.652344 146.652344 62.328125 145.777344 C 62.003906 144.902344 61.859375 143.996094 61.890625 143.0625 C 61.6875 103.757812 61.558594 64.46875 61.496094 25.199219 C 61.5 24.875 61.621094 24.601562 61.859375 24.386719 L 63.824219 22.546875 C 64.054688 22.316406 64.332031 22.199219 64.660156 22.195312 L 308.78125 22.195312 C 309.15625 22.179688 309.445312 22.335938 309.644531 22.65625 C 309.789062 22.914062 310.007812 23.03125 310.300781 23.007812 Z M 310.300781 23.007812 " fill-opacity="1" fill-rule="nonzero"/></g><g clip-path="url(#c58d11f9a4)"><path fill="#ffffff" d="M 130.488281 138.1875 C 130.40625 138.105469 130.363281 138.003906 130.363281 137.882812 L 130.363281 85.929688 C 130.363281 85.730469 130.402344 85.535156 130.480469 85.351562 C 130.554688 85.164062 130.664062 85 130.808594 84.859375 C 130.949219 84.71875 131.109375 84.605469 131.296875 84.527344 C 131.480469 84.449219 131.671875 84.410156 131.875 84.40625 C 208.6875 84.183594 285.5 84.082031 362.320312 84.101562 L 364.195312 83.972656 C 366.355469 83.816406 367.433594 84.84375 367.433594 87.050781 L 367.433594 137.492188 C 367.4375 137.707031 367.371094 137.898438 367.238281 138.066406 C 367.105469 138.234375 366.9375 138.34375 366.726562 138.394531 C 363.878906 139.121094 360.980469 139.464844 358.039062 139.425781 L 355.722656 139.378906 C 281.726562 139.378906 207.722656 139.460938 133.71875 139.625 C 133.105469 139.652344 132.523438 139.53125 131.972656 139.261719 C 131.433594 138.960938 130.941406 138.605469 130.488281 138.1875 Z M 130.488281 138.1875 " fill-opacity="1" fill-rule="nonzero"/></g><g clip-path="url(#0271dc8ff4)"><path fill="#ffffff" d="M 311.175781 149.882812 C 311.175781 149.421875 311.488281 149.527344 312.019531 150.207031 C 312.3125 150.59375 312.460938 151.027344 312.460938 151.515625 C 312.460938 191.089844 312.460938 230.691406 312.460938 270.320312 C 312.460938 272.375 311.6875 273.574219 310.125 273.9375 C 309.917969 273.984375 308.683594 274.003906 306.414062 274.003906 L 64.167969 274.003906 C 63.984375 274.03125 63.800781 274.039062 63.613281 274.019531 C 63.429688 274.003906 63.246094 273.964844 63.070312 273.90625 C 62.894531 273.847656 62.726562 273.769531 62.570312 273.671875 C 62.410156 273.574219 62.265625 273.457031 62.136719 273.324219 C 62.003906 273.191406 61.890625 273.046875 61.792969 272.886719 C 61.699219 272.726562 61.621094 272.558594 61.5625 272.382812 C 61.507812 272.203125 61.472656 272.023438 61.457031 271.835938 C 61.441406 271.652344 61.449219 271.46875 61.476562 271.285156 C 61.628906 256.386719 61.703125 241.042969 61.703125 225.253906 C 61.601562 224.039062 61.863281 222.902344 62.488281 221.855469 C 62.628906 221.667969 62.785156 221.496094 62.964844 221.34375 C 63.140625 221.191406 63.332031 221.058594 63.535156 220.945312 C 63.742188 220.832031 63.957031 220.746094 64.179688 220.679688 C 64.40625 220.613281 64.632812 220.574219 64.867188 220.558594 C 65.101562 220.542969 65.332031 220.550781 65.5625 220.585938 C 65.792969 220.621094 66.019531 220.679688 66.238281 220.761719 C 66.457031 220.84375 66.664062 220.949219 66.859375 221.078125 C 67.054688 221.207031 67.234375 221.351562 67.398438 221.519531 C 68.035156 222.136719 68.507812 222.863281 68.8125 223.695312 C 69.117188 224.527344 69.230469 225.382812 69.144531 226.265625 C 69.078125 227.316406 69.046875 227.859375 69.046875 227.886719 C 68.949219 240.144531 69.027344 252.128906 69.28125 263.84375 C 69.25 264.128906 69.285156 264.40625 69.378906 264.675781 C 69.476562 264.949219 69.628906 265.183594 69.832031 265.382812 C 70.039062 265.582031 70.277344 265.730469 70.550781 265.820312 C 70.820312 265.910156 71.097656 265.9375 71.382812 265.898438 L 255.042969 265.898438 C 258.402344 265.898438 264.945312 265.972656 274.675781 266.125 C 284.410156 266.273438 293.929688 266.207031 303.234375 265.917969 C 303.378906 265.914062 303.519531 265.882812 303.652344 265.824219 C 303.785156 265.765625 303.90625 265.683594 304.007812 265.578125 C 304.109375 265.476562 304.1875 265.355469 304.242188 265.21875 C 304.296875 265.085938 304.324219 264.945312 304.324219 264.796875 L 304.363281 151.640625 C 304.332031 150.972656 304.492188 150.351562 304.84375 149.78125 C 305.191406 149.210938 305.667969 148.785156 306.277344 148.507812 C 307.75 147.753906 309.382812 148.210938 311.175781 149.882812 Z M 311.175781 149.882812 " fill-opacity="1" fill-rule="nonzero"/></g><g clip-path="url(#096773b098)"><path fill="#ffffff" d="M 6.367188 157.261719 C 6.464844 156.800781 6.898438 156.574219 7.652344 156.574219 L 243.3125 156.574219 C 243.5 156.574219 243.660156 156.640625 243.792969 156.773438 C 243.925781 156.90625 243.988281 157.066406 243.992188 157.253906 L 243.992188 211.507812 C 243.988281 211.738281 243.910156 211.933594 243.746094 212.097656 C 243.582031 212.261719 243.386719 212.34375 243.15625 212.34375 L 7.652344 212.34375 C 7.425781 212.34375 7.207031 212.296875 6.996094 212.210938 C 6.785156 212.125 6.597656 212 6.4375 211.839844 C 6.277344 211.675781 6.152344 211.492188 6.066406 211.28125 C 5.980469 211.070312 5.933594 210.851562 5.933594 210.621094 L 5.933594 159.277344 C 5.921875 158.894531 5.984375 158.523438 6.121094 158.167969 C 6.226562 157.871094 6.308594 157.570312 6.367188 157.261719 Z M 6.367188 157.261719 " fill-opacity="1" fill-rule="nonzero"/></g><g fill="#ffffff" fill-opacity="1"><g transform="translate(25.197844, 325.091345)"><g><path d="M 13.746094 -15.816406 C 10.753906 -16.664062 8.609375 -17.738281 8.609375 -20.507812 C 8.609375 -22.542969 9.71875 -25.792969 12.269531 -25.792969 L 13.746094 -25.792969 L 20.839844 -17.625 C 21.210938 -17.144531 21.765625 -16.664062 22.023438 -16.664062 L 22.28125 -16.664062 C 22.6875 -16.664062 22.800781 -16.925781 22.800781 -17.332031 L 22.800781 -25.015625 C 22.800781 -25.609375 22.578125 -25.941406 21.988281 -25.976562 L 13.746094 -26.308594 L 12.082031 -26.308594 C 4.878906 -26.308594 2.402344 -22.429688 2.402344 -19.179688 C 2.402344 -15.039062 4.691406 -12.082031 11.417969 -10.050781 C 14.707031 -9.054688 17.070312 -8.386719 17.070312 -5.136719 C 17.070312 -3.105469 15.851562 -0.148438 13.414062 -0.148438 L 11.601562 -0.148438 L 4.507812 -8.3125 C 4.140625 -8.792969 3.585938 -9.273438 3.324219 -9.273438 L 3.066406 -9.273438 C 2.660156 -9.273438 2.550781 -9.015625 2.550781 -8.609375 L 2.550781 -0.921875 C 2.550781 -0.332031 2.769531 0 3.363281 0.0351562 L 11.601562 0.371094 L 13.597656 0.371094 C 20.804688 0.371094 23.796875 -3.25 23.796875 -7.6875 C 23.796875 -12.417969 18.847656 -14.375 13.746094 -15.816406 Z M 13.746094 -15.816406 "/></g></g></g><g fill="#ffffff" fill-opacity="1"><g transform="translate(51.394833, 325.091345)"><g><path d="M 19.4375 -19.4375 C 19.4375 -20.027344 19.214844 -20.398438 18.625 -20.398438 L 1.550781 -20.398438 C 0.960938 -20.398438 0.738281 -20.027344 0.738281 -19.4375 L 0.738281 -12.824219 C 0.738281 -12.417969 0.851562 -12.15625 1.257812 -12.15625 L 1.476562 -12.15625 C 1.8125 -12.15625 2.179688 -12.636719 2.511719 -13.117188 L 6.945312 -19.878906 L 7.242188 -19.878906 L 7.242188 -0.960938 C 7.242188 -0.371094 7.464844 0 8.054688 0 L 12.121094 0 C 12.710938 0 12.933594 -0.371094 12.933594 -0.960938 L 12.933594 -19.878906 L 13.230469 -19.878906 L 17.664062 -13.117188 C 17.996094 -12.636719 18.367188 -12.15625 18.699219 -12.15625 L 18.917969 -12.15625 C 19.324219 -12.15625 19.4375 -12.417969 19.4375 -12.824219 Z M 19.4375 -19.4375 "/></g></g></g><g fill="#ffffff" fill-opacity="1"><g transform="translate(71.569107, 325.091345)"><g><path d="M 13.191406 -19.4375 C 12.96875 -19.953125 12.488281 -20.398438 11.863281 -20.398438 L 9.976562 -20.398438 C 9.460938 -20.398438 8.941406 -19.953125 8.722656 -19.4375 L 0.445312 -0.960938 C 0.257812 -0.480469 0.445312 0 1.035156 0 L 6.355469 0 C 7.132812 0 7.425781 -0.40625 7.167969 -0.960938 L 4.433594 -7.058594 L 11.789062 -7.058594 L 14.523438 -0.960938 C 14.78125 -0.40625 15.1875 0 15.851562 0 L 20.878906 0 C 21.46875 0 21.652344 -0.480469 21.46875 -0.960938 Z M 11.566406 -7.574219 L 4.027344 -7.574219 L 7.761719 -16.109375 Z M 11.566406 -7.574219 "/></g></g></g><g fill="#ffffff" fill-opacity="1"><g transform="translate(93.479986, 325.091345)"><g><path d="M 20.027344 0 C 20.695312 -0.0742188 20.839844 -0.371094 20.839844 -0.960938 L 20.839844 -5.765625 C 20.839844 -6.28125 20.695312 -6.503906 20.324219 -6.652344 L 19.953125 -6.835938 C 19.804688 -6.875 19.660156 -6.910156 19.511719 -6.910156 C 19.214844 -6.910156 18.917969 -6.800781 18.660156 -6.539062 L 13.375 -0.148438 C 10.570312 -0.148438 8.019531 -4.507812 8.019531 -10.273438 C 8.019531 -16.039062 10.640625 -20.324219 13.449219 -20.324219 L 18.734375 -13.929688 C 18.992188 -13.671875 19.253906 -13.5625 19.546875 -13.5625 C 19.695312 -13.5625 19.804688 -13.597656 19.953125 -13.636719 L 20.324219 -13.820312 C 20.695312 -13.96875 20.839844 -14.191406 20.839844 -14.707031 L 20.839844 -19.511719 C 20.839844 -20.101562 20.695312 -20.398438 20.027344 -20.472656 L 12.933594 -20.765625 C 7.09375 -20.765625 1.476562 -19.253906 1.476562 -10.273438 C 1.476562 -1.292969 7.019531 0.296875 12.859375 0.296875 Z M 20.027344 0 "/></g></g></g><g fill="#ffffff" fill-opacity="1"><g transform="translate(116.721047, 325.091345)"><g><path d="M 2.957031 -0.960938 C 2.957031 -0.371094 3.179688 0 3.769531 0 L 8.460938 0 C 9.054688 0 9.273438 -0.371094 9.273438 -0.960938 L 9.273438 -19.4375 C 9.273438 -20.027344 9.054688 -20.398438 8.460938 -20.398438 L 3.769531 -20.398438 C 3.179688 -20.398438 2.957031 -20.027344 2.957031 -19.4375 Z M 22.835938 -19.4375 C 23.28125 -19.878906 23.09375 -20.398438 22.355469 -20.398438 L 14.964844 -20.398438 C 14.335938 -20.398438 14.117188 -19.917969 14.484375 -19.4375 L 18.21875 -14.523438 C 14.671875 -10.273438 13.710938 -9.535156 10.050781 -9.535156 L 10.050781 -9.054688 L 16.257812 -0.960938 C 16.703125 -0.445312 17.257812 0 17.921875 0 L 23.390625 0 C 24.019531 0 24.242188 -0.480469 23.871094 -0.960938 L 16.039062 -11.195312 Z M 22.835938 -19.4375 "/></g></g></g><g fill="#ffffff" fill-opacity="1"><g transform="translate(141.513972, 325.091345)"><g><path d="M 3.769531 -20.398438 C 3.179688 -20.398438 2.957031 -20.027344 2.957031 -19.4375 L 2.957031 -0.960938 C 2.957031 -0.371094 3.179688 0 3.769531 0 L 18.367188 0 C 18.882812 0 19.179688 -0.371094 19.398438 -0.960938 L 21.691406 -6.6875 C 21.765625 -6.875 21.839844 -7.058594 21.652344 -7.207031 L 21.210938 -7.539062 C 21.136719 -7.613281 21.0625 -7.613281 20.988281 -7.613281 C 20.878906 -7.613281 20.765625 -7.539062 20.621094 -7.464844 L 10.714844 -0.515625 L 9.273438 -0.515625 L 9.273438 -10.160156 L 17.183594 -9.976562 L 17.183594 -10.863281 L 9.273438 -10.679688 L 9.273438 -19.878906 L 10.714844 -19.878906 L 17.070312 -14.523438 C 17.589844 -14.117188 18.21875 -13.636719 18.734375 -13.636719 L 18.957031 -13.636719 C 19.546875 -13.636719 19.769531 -14.003906 19.769531 -14.597656 L 19.769531 -19.4375 C 19.769531 -20.027344 19.546875 -20.398438 18.957031 -20.398438 Z M 3.769531 -20.398438 "/></g></g></g><g fill="#ffffff" fill-opacity="1"><g transform="translate(163.868242, 325.091345)"><g><path d="M 12.5625 0 C 18.402344 0 23.761719 -1.292969 23.761719 -10.273438 C 23.761719 -19.253906 18.328125 -20.472656 12.488281 -20.472656 L 3.769531 -20.472656 C 3.179688 -20.472656 2.957031 -20.101562 2.957031 -19.511719 L 2.957031 -0.960938 C 2.957031 -0.371094 3.105469 -0.0742188 3.769531 0 Z M 11.972656 -20.027344 C 14.78125 -20.027344 17.183594 -16.039062 17.183594 -10.273438 C 17.183594 -4.507812 14.855469 -0.445312 12.046875 -0.445312 L 9.460938 -0.445312 L 9.460938 -20.027344 Z M 11.972656 -20.027344 "/></g></g></g><g fill="#ffffff" fill-opacity="1"><g transform="translate(188.919815, 325.091345)"><g/></g></g><g fill="#ffffff" fill-opacity="1"><g transform="translate(200.004585, 325.091345)"><g><path d="M 13.746094 -15.816406 C 10.753906 -16.664062 8.609375 -17.738281 8.609375 -20.507812 C 8.609375 -22.542969 9.71875 -25.792969 12.269531 -25.792969 L 13.746094 -25.792969 L 20.839844 -17.625 C 21.210938 -17.144531 21.765625 -16.664062 22.023438 -16.664062 L 22.28125 -16.664062 C 22.6875 -16.664062 22.800781 -16.925781 22.800781 -17.332031 L 22.800781 -25.015625 C 22.800781 -25.609375 22.578125 -25.941406 21.988281 -25.976562 L 13.746094 -26.308594 L 12.082031 -26.308594 C 4.878906 -26.308594 2.402344 -22.429688 2.402344 -19.179688 C 2.402344 -15.039062 4.691406 -12.082031 11.417969 -10.050781 C 14.707031 -9.054688 17.070312 -8.386719 17.070312 -5.136719 C 17.070312 -3.105469 15.851562 -0.148438 13.414062 -0.148438 L 11.601562 -0.148438 L 4.507812 -8.3125 C 4.140625 -8.792969 3.585938 -9.273438 3.324219 -9.273438 L 3.066406 -9.273438 C 2.660156 -9.273438 2.550781 -9.015625 2.550781 -8.609375 L 2.550781 -0.921875 C 2.550781 -0.332031 2.769531 0 3.363281 0.0351562 L 11.601562 0.371094 L 13.597656 0.371094 C 20.804688 0.371094 23.796875 -3.25 23.796875 -7.6875 C 23.796875 -12.417969 18.847656 -14.375 13.746094 -15.816406 Z M 13.746094 -15.816406 "/></g></g></g><g fill="#ffffff" fill-opacity="1"><g transform="translate(226.201586, 325.091345)"><g><path d="M 23.019531 -19.4375 C 23.019531 -20.027344 22.800781 -20.398438 22.207031 -20.398438 L 17.515625 -20.398438 C 16.925781 -20.398438 16.703125 -20.027344 16.703125 -19.4375 L 16.703125 -10.863281 L 9.273438 -10.863281 L 9.273438 -19.4375 C 9.273438 -20.027344 9.054688 -20.398438 8.460938 -20.398438 L 3.769531 -20.398438 C 3.179688 -20.398438 2.957031 -20.027344 2.957031 -19.4375 L 2.957031 -0.960938 C 2.957031 -0.371094 3.179688 0 3.769531 0 L 8.460938 0 C 9.054688 0 9.273438 -0.371094 9.273438 -0.960938 L 9.273438 -10.089844 L 16.703125 -10.089844 L 16.703125 -0.960938 C 16.703125 -0.371094 16.925781 0 17.515625 0 L 22.207031 0 C 22.800781 0 23.019531 -0.371094 23.019531 -0.960938 Z M 23.019531 -19.4375 "/></g></g></g><g fill="#ffffff" fill-opacity="1"><g transform="translate(252.17688, 325.091345)"><g><path d="M 3.769531 -20.398438 C 3.179688 -20.398438 2.957031 -20.027344 2.957031 -19.4375 L 2.957031 -0.960938 C 2.957031 -0.371094 3.179688 0 3.769531 0 L 18.367188 0 C 18.882812 0 19.179688 -0.371094 19.398438 -0.960938 L 21.691406 -6.6875 C 21.765625 -6.875 21.839844 -7.058594 21.652344 -7.207031 L 21.210938 -7.539062 C 21.136719 -7.613281 21.0625 -7.613281 20.988281 -7.613281 C 20.878906 -7.613281 20.765625 -7.539062 20.621094 -7.464844 L 10.714844 -0.515625 L 9.273438 -0.515625 L 9.273438 -10.160156 L 17.183594 -9.976562 L 17.183594 -10.863281 L 9.273438 -10.679688 L 9.273438 -19.878906 L 10.714844 -19.878906 L 17.070312 -14.523438 C 17.589844 -14.117188 18.21875 -13.636719 18.734375 -13.636719 L 18.957031 -13.636719 C 19.546875 -13.636719 19.769531 -14.003906 19.769531 -14.597656 L 19.769531 -19.4375 C 19.769531 -20.027344 19.546875 -20.398438 18.957031 -20.398438 Z M 3.769531 -20.398438 "/></g></g></g><g fill="#ffffff" fill-opacity="1"><g transform="translate(274.53115, 325.091345)"><g><path d="M 19.769531 -5.800781 C 19.769531 -6.394531 19.546875 -6.761719 18.957031 -6.761719 L 18.734375 -6.761719 C 18.21875 -6.761719 17.589844 -6.28125 17.070312 -5.875 L 10.714844 -0.515625 L 9.273438 -0.515625 L 9.273438 -19.4375 C 9.273438 -20.027344 9.054688 -20.398438 8.460938 -20.398438 L 3.769531 -20.398438 C 3.179688 -20.398438 2.957031 -20.027344 2.957031 -19.4375 L 2.957031 -0.960938 C 2.957031 -0.371094 3.179688 0 3.769531 0 L 18.957031 0 C 19.546875 0 19.769531 -0.371094 19.769531 -0.960938 Z M 19.769531 -5.800781 "/></g></g></g><g fill="#ffffff" fill-opacity="1"><g transform="translate(294.853224, 325.091345)"><g><path d="M 15.925781 -20.398438 C 15.152344 -20.398438 14.855469 -19.992188 15.113281 -19.4375 L 18.179688 -12.601562 L 14.523438 -4.285156 L 7.761719 -19.4375 C 7.5 -19.992188 7.09375 -20.398438 6.429688 -20.398438 L 1.035156 -20.398438 C 0.445312 -20.398438 0.257812 -19.917969 0.445312 -19.4375 L 8.722656 -0.960938 C 8.941406 -0.445312 9.421875 0 10.050781 0 L 12.304688 0 C 12.824219 0 13.339844 -0.445312 13.5625 -0.960938 L 21.839844 -19.4375 C 22.023438 -19.917969 21.839844 -20.398438 21.246094 -20.398438 Z M 15.925781 -20.398438 "/></g></g></g><g fill="#ffffff" fill-opacity="1"><g transform="translate(317.133587, 325.091345)"><g><path d="M 3.769531 -20.398438 C 3.179688 -20.398438 2.957031 -20.027344 2.957031 -19.4375 L 2.957031 -0.960938 C 2.957031 -0.371094 3.179688 0 3.769531 0 L 18.367188 0 C 18.882812 0 19.179688 -0.371094 19.398438 -0.960938 L 21.691406 -6.6875 C 21.765625 -6.875 21.839844 -7.058594 21.652344 -7.207031 L 21.210938 -7.539062 C 21.136719 -7.613281 21.0625 -7.613281 20.988281 -7.613281 C 20.878906 -7.613281 20.765625 -7.539062 20.621094 -7.464844 L 10.714844 -0.515625 L 9.273438 -0.515625 L 9.273438 -10.160156 L 17.183594 -9.976562 L 17.183594 -10.863281 L 9.273438 -10.679688 L 9.273438 -19.878906 L 10.714844 -19.878906 L 17.070312 -14.523438 C 17.589844 -14.117188 18.21875 -13.636719 18.734375 -13.636719 L 18.957031 -13.636719 C 19.546875 -13.636719 19.769531 -14.003906 19.769531 -14.597656 L 19.769531 -19.4375 C 19.769531 -20.027344 19.546875 -20.398438 18.957031 -20.398438 Z M 3.769531 -20.398438 "/></g></g></g><g fill="#ffffff" fill-opacity="1"><g transform="translate(339.487857, 325.091345)"><g><path d="M 12.824219 -12.894531 C 9.828125 -13.746094 8.609375 -15.335938 8.609375 -17.21875 C 8.609375 -19.253906 10.347656 -20.25 12.269531 -20.25 L 13.117188 -20.25 L 17.367188 -14.816406 C 17.8125 -14.226562 18.144531 -13.855469 18.550781 -13.855469 L 18.808594 -13.855469 C 19.214844 -13.855469 19.324219 -14.117188 19.324219 -14.523438 L 19.289062 -19.324219 C 19.289062 -19.917969 19.105469 -20.214844 18.476562 -20.285156 L 14.191406 -20.765625 L 12.082031 -20.765625 C 5.726562 -20.765625 2.402344 -18.328125 2.402344 -15.484375 C 2.402344 -12.121094 3.769531 -10.273438 10.496094 -8.242188 C 13.785156 -7.242188 14.261719 -6.171875 14.261719 -4.101562 C 14.261719 -2.070312 13.042969 -0.148438 10.605469 -0.148438 L 9.867188 -0.148438 L 4.507812 -7.390625 C 4.066406 -7.980469 3.730469 -8.351562 3.324219 -8.351562 L 3.066406 -8.351562 C 2.660156 -8.351562 2.550781 -8.09375 2.550781 -7.6875 L 2.585938 -0.960938 C 2.585938 -0.371094 2.808594 -0.0351562 3.398438 0 L 8.792969 0.371094 L 10.789062 0.371094 C 16.738281 0.371094 20.398438 -1.476562 20.398438 -5.914062 C 20.398438 -9.792969 17.921875 -11.457031 12.824219 -12.894531 Z M 12.824219 -12.894531 "/></g></g></g></svg>