<svg id="Calque_1" data-name="Calque 1" xmlns="http://www.w3.org/2000/svg" xmlns:xlink="http://www.w3.org/1999/xlink" viewBox="0 0 482 404.36"><defs><style>.cls-1{fill:none;}.cls-2{clip-path:url(#clip-path);}.cls-3{fill:#dcb253;}.cls-4{clip-path:url(#clip-path-2);}.cls-5{clip-path:url(#clip-path-3);}.cls-6{clip-path:url(#clip-path-4);}</style><clipPath id="clip-path" transform="translate(-7.91 -48.59)"><rect class="cls-1" x="81.33" y="48.46" width="336" height="169.2"/></clipPath><clipPath id="clip-path-2" transform="translate(-7.91 -48.59)"><rect class="cls-1" x="173.33" y="129.67" width="316.58" height="76"/></clipPath><clipPath id="clip-path-3" transform="translate(-7.91 -48.59)"><rect class="cls-1" x="81.33" y="216.33" width="336" height="168.13"/></clipPath><clipPath id="clip-path-4" transform="translate(-7.91 -48.59)"><rect class="cls-1" x="7.91" y="227" width="317.42" height="76"/></clipPath></defs><title>Stacked Shelves Doré</title><g class="cls-2"><path class="cls-3" d="M413.73,49.68a2.3,2.3,0,0,1,1.5.3c.93.53,1.38,2,1.38,4.51v55.35a9.35,9.35,0,0,1-.7,3.66,2.52,2.52,0,0,0-.17,1.24,3.43,3.43,0,0,1-.93,2.85,1.85,1.85,0,0,0-.51,1.1c-.14,1.46-1,2-2.62,1.64-3.67-.86-5.56-3.33-5.64-7.46q-.44-22.47,0-44.95a26.88,26.88,0,0,0-1-7.68,1.94,1.94,0,0,0-.69-1.06,2,2,0,0,0-1.19-.44l-222.75.08a3.75,3.75,0,0,0-1.22.33,3.67,3.67,0,0,1-1.47.25H99.22a38.16,38.16,0,0,0-6.32.44.77.77,0,0,0-.46.28.82.82,0,0,0-.17.5Q92,134,92,207.36c0,.11,0,1.06.16,2.82q.38,6.33-6,6.76A1.36,1.36,0,0,1,85,216.5a9.48,9.48,0,0,1-2.49-6.75Q82.12,131.14,82,52.6a1.43,1.43,0,0,1,.49-1.08l2.62-2.46a1.6,1.6,0,0,1,1.11-.47h325.5a1.22,1.22,0,0,1,1.15.62A.85.85,0,0,0,413.73,49.68Z" transform="translate(-7.91 -48.59)"/></g><g class="cls-4"><path class="cls-3" d="M174,204.25a.58.58,0,0,1-.16-.41V134.57a2.07,2.07,0,0,1,.15-.77,1.83,1.83,0,0,1,.44-.65,2.1,2.1,0,0,1,.65-.45,2.25,2.25,0,0,1,.77-.16q153.63-.45,307.26-.4l2.5-.18q4.32-.3,4.32,4.11v67.25a1.14,1.14,0,0,1-.26.77,1.25,1.25,0,0,1-.68.44,44.75,44.75,0,0,1-11.58,1.37l-3.09-.06q-148,0-296,.33a4.82,4.82,0,0,1-2.33-.49A10.28,10.28,0,0,1,174,204.25Z" transform="translate(-7.91 -48.59)"/></g><g class="cls-5"><path class="cls-3" d="M414.9,218.84c0-.61.42-.47,1.13.44a2.78,2.78,0,0,1,.58,1.74V379.43c0,2.74-1,4.34-3.11,4.82-.28.06-1.92.09-4.95.09h-323a2.62,2.62,0,0,1-.74,0,3.06,3.06,0,0,1-.73-.15,3.31,3.31,0,0,1-.66-.31,2.65,2.65,0,0,1-.58-.47,2.86,2.86,0,0,1-.46-.58,4.07,4.07,0,0,1-.31-.67,3.62,3.62,0,0,1-.14-.73,3.06,3.06,0,0,1,0-.74q.3-29.79.3-61.37a7.42,7.42,0,0,1,1-4.53,4.07,4.07,0,0,1,.63-.68,4.38,4.38,0,0,1,.76-.54,4.85,4.85,0,0,1,.86-.35,4.23,4.23,0,0,1,.92-.16,4.09,4.09,0,0,1,1.83.27,4.31,4.31,0,0,1,.83.42,4,4,0,0,1,.71.59,7.68,7.68,0,0,1,1.89,2.9,7.56,7.56,0,0,1,.44,3.43c-.09,1.4-.13,2.12-.13,2.16q-.19,24.51.32,47.94a2.33,2.33,0,0,0,.13,1.11,2.37,2.37,0,0,0,.6.94,2.45,2.45,0,0,0,2.07.69H340.06q6.72,0,26.17.3t38.08-.27a1.53,1.53,0,0,0,.56-.13,1.43,1.43,0,0,0,.47-.33,1.4,1.4,0,0,0,.32-.47,1.56,1.56,0,0,0,.11-.57l.05-150.87a4.39,4.39,0,0,1,2.55-4.18C410.33,216,412.51,216.61,414.9,218.84Z" transform="translate(-7.91 -48.59)"/></g><g class="cls-6"><path class="cls-3" d="M8.49,228.68c.13-.61.71-.91,1.71-.91H324.42a.86.86,0,0,1,.64.26.9.9,0,0,1,.26.64V301a1.07,1.07,0,0,1-.33.79,1,1,0,0,1-.78.33H10.2a2.37,2.37,0,0,1-.87-.18,2.35,2.35,0,0,1-.75-.5,2.28,2.28,0,0,1-.49-.74,2.2,2.2,0,0,1-.18-.88V231.37a3.91,3.91,0,0,1,.25-1.48A8.68,8.68,0,0,0,8.49,228.68Z" transform="translate(-7.91 -48.59)"/></g><path class="cls-3" d="M51.93,431.37c-4-1.13-6.85-2.57-6.85-6.26,0-2.71,1.48-7.05,4.88-7.05h2L61.38,429c.5.64,1.24,1.28,1.58,1.28h.35c.54,0,.69-.35.69-.89V419.1c0-.79-.3-1.23-1.09-1.28l-11-.44H49.71c-9.61,0-12.91,5.17-12.91,9.5,0,5.52,3.05,9.47,12,12.17,4.39,1.33,7.54,2.22,7.54,6.56,0,2.7-1.63,6.65-4.88,6.65H49.07l-9.46-10.89c-.49-.64-1.23-1.28-1.58-1.28h-.34c-.55,0-.69.34-.69.89v10.25c0,.78.29,1.23,1.08,1.27l11,.45h2.66c9.61,0,13.6-4.83,13.6-10.74C65.33,435.9,58.73,433.29,51.93,431.37Z" transform="translate(-7.91 -48.59)"/><path class="cls-3" d="M94.44,426.54c0-.79-.29-1.28-1.08-1.28H70.59c-.78,0-1.08.49-1.08,1.28v8.82c0,.54.15.89.69.89h.3c.44,0,.93-.64,1.38-1.28l5.91-9h.39v25.22c0,.79.3,1.29,1.09,1.29h5.42c.78,0,1.08-.5,1.08-1.29V426h.4l5.91,9c.44.64.94,1.28,1.38,1.28h.29c.54,0,.69-.35.69-.89Z" transform="translate(-7.91 -48.59)"/><path class="cls-3" d="M113,426.54a2,2,0,0,0-1.77-1.28h-2.51a2,2,0,0,0-1.67,1.28L96,451.17c-.25.64,0,1.29.79,1.29h7.09c1,0,1.43-.55,1.08-1.29L101.34,443h9.8l3.65,8.13a1.92,1.92,0,0,0,1.77,1.29h6.7c.79,0,1-.65.79-1.29Zm-2.16,15.82h-10l5-11.38Z" transform="translate(-7.91 -48.59)"/><path class="cls-3" d="M151.34,452.46c.89-.1,1.09-.5,1.09-1.29v-6.4c0-.69-.2-1-.69-1.18l-.5-.25a2.35,2.35,0,0,0-.58-.1,1.56,1.56,0,0,0-1.14.5l-7.05,8.52c-3.74,0-7.14-5.82-7.14-13.5s3.5-13.4,7.24-13.4l7.05,8.52a1.44,1.44,0,0,0,1.08.49,2,2,0,0,0,.54-.1l.5-.24c.49-.2.69-.5.69-1.18v-6.41c0-.79-.2-1.18-1.09-1.28l-9.46-.39c-7.78,0-15.27,2-15.27,14s7.39,14.09,15.18,14.09Z" transform="translate(-7.91 -48.59)"/><path class="cls-3" d="M159.57,451.17c0,.79.3,1.29,1.08,1.29h6.26c.79,0,1.08-.5,1.08-1.29V426.54c0-.79-.29-1.28-1.08-1.28h-6.26c-.78,0-1.08.49-1.08,1.28Zm26.51-24.63c.59-.59.34-1.28-.64-1.28h-9.86c-.84,0-1.13.64-.64,1.28l5,6.55c-4.73,5.67-6,6.65-10.89,6.65v.64l8.28,10.79a3.08,3.08,0,0,0,2.21,1.29h7.3c.83,0,1.13-.65.64-1.29L177,437.53Z" transform="translate(-7.91 -48.59)"/><path class="cls-3" d="M193.71,425.26c-.79,0-1.08.49-1.08,1.28v24.63c0,.79.29,1.29,1.08,1.29h19.46c.69,0,1.09-.5,1.38-1.29l3.06-7.63c.1-.25.2-.5-.05-.69l-.59-.45a.37.37,0,0,0-.3-.1,1.21,1.21,0,0,0-.49.2L203,451.77h-1.92V438.91l10.55.24V438l-10.55.25V426H203l8.48,7.14a4.5,4.5,0,0,0,2.21,1.18h.3c.79,0,1.08-.49,1.08-1.28v-6.45c0-.79-.29-1.28-1.08-1.28Z" transform="translate(-7.91 -48.59)"/><path class="cls-3" d="M235.24,452.46c7.79,0,14.93-1.73,14.93-13.7s-7.24-13.6-15-13.6H223.52c-.79,0-1.09.49-1.09,1.28v24.73c0,.79.2,1.19,1.09,1.29Zm-.79-26.71c3.75,0,7,5.32,7,13s-3.1,13.1-6.85,13.1h-3.44V425.75Z" transform="translate(-7.91 -48.59)"/><path class="cls-3" d="M285,431.37c-4-1.13-6.85-2.57-6.85-6.26,0-2.71,1.48-7.05,4.88-7.05h2l9.46,10.9c.49.64,1.23,1.28,1.58,1.28h.34c.54,0,.69-.35.69-.89V419.1c0-.79-.29-1.23-1.08-1.28l-11-.44h-2.22c-9.6,0-12.9,5.17-12.9,9.5,0,5.52,3.05,9.47,12,12.17,4.38,1.33,7.53,2.22,7.53,6.56,0,2.7-1.62,6.65-4.87,6.65h-2.42l-9.46-10.89c-.49-.64-1.23-1.28-1.57-1.28h-.35c-.54,0-.69.34-.69.89v10.25c0,.78.3,1.23,1.09,1.27l11,.45h2.66c9.61,0,13.6-4.83,13.6-10.74C298.4,435.9,291.8,433.29,285,431.37Z" transform="translate(-7.91 -48.59)"/><path class="cls-3" d="M332.29,426.54c0-.79-.29-1.28-1.08-1.28H325c-.79,0-1.09.49-1.09,1.28V438H314V426.54c0-.79-.29-1.28-1.09-1.28h-6.25c-.79,0-1.09.49-1.09,1.28v24.63c0,.79.3,1.29,1.09,1.29h6.25c.8,0,1.09-.5,1.09-1.29V439h9.9v12.17c0,.79.3,1.29,1.09,1.29h6.25c.79,0,1.08-.5,1.08-1.29Z" transform="translate(-7.91 -48.59)"/><path class="cls-3" d="M341.26,425.26c-.78,0-1.08.49-1.08,1.28v24.63c0,.79.3,1.29,1.08,1.29h19.47c.68,0,1.08-.5,1.37-1.29l3.06-7.63c.1-.25.2-.5-.05-.69l-.59-.45a.37.37,0,0,0-.3-.1,1.21,1.21,0,0,0-.49.2l-13.21,9.27H348.6V438.91l10.55.24V438l-10.55.25V426h1.92l8.48,7.14a4.48,4.48,0,0,0,2.22,1.18h.29c.79,0,1.09-.49,1.09-1.28v-6.45c0-.79-.3-1.28-1.09-1.28Z" transform="translate(-7.91 -48.59)"/><path class="cls-3" d="M392.4,444.72c0-.79-.3-1.28-1.08-1.28H391a4.48,4.48,0,0,0-2.22,1.18l-8.47,7.15h-1.92V426.54c0-.79-.3-1.28-1.09-1.28h-6.25c-.79,0-1.09.49-1.09,1.28v24.63c0,.79.3,1.29,1.09,1.29h20.25c.78,0,1.08-.5,1.08-1.29Z" transform="translate(-7.91 -48.59)"/><path class="cls-3" d="M414.37,425.26c-1,0-1.43.54-1.08,1.28l4.09,9.11-4.88,11.09-9-20.2a1.92,1.92,0,0,0-1.78-1.28h-7.19c-.79,0-1,.64-.79,1.28l11,24.63a2,2,0,0,0,1.77,1.29h3a2,2,0,0,0,1.68-1.29l11-24.63c.24-.64,0-1.28-.79-1.28Z" transform="translate(-7.91 -48.59)"/><path class="cls-3" d="M427.87,425.26c-.79,0-1.08.49-1.08,1.28v24.63c0,.79.29,1.29,1.08,1.29h19.46c.69,0,1.09-.5,1.38-1.29l3.06-7.63c.1-.25.19-.5-.06-.69l-.58-.45a.37.37,0,0,0-.3-.1,1.21,1.21,0,0,0-.49.2l-13.21,9.27h-1.92V438.91l10.55.24V438l-10.55.25V426h1.92l8.48,7.14a4.5,4.5,0,0,0,2.21,1.18h.3c.79,0,1.08-.49,1.08-1.28v-6.45c0-.79-.29-1.28-1.08-1.28Z" transform="translate(-7.91 -48.59)"/><path class="cls-3" d="M469.75,435.26c-4-1.13-5.62-3.25-5.62-5.76,0-2.72,2.32-4,4.88-4h1.13l5.67,7.24c.59.79,1,1.28,1.57,1.28h.35c.54,0,.69-.35.69-.89l-.05-6.4c0-.79-.25-1.19-1.08-1.28l-5.72-.64h-2.81c-8.47,0-12.91,3.25-12.91,7,0,4.48,1.83,6.95,10.8,9.66,4.38,1.33,5,2.76,5,5.52s-1.63,5.27-4.88,5.27h-1l-7.15-9.66c-.59-.79-1-1.28-1.58-1.28h-.34c-.54,0-.69.34-.69.89l.05,9c0,.79.3,1.24,1.08,1.29l7.19.49H467c7.93,0,12.81-2.46,12.81-8.38C479.85,439.4,476.55,437.18,469.75,435.26Z" transform="translate(-7.91 -48.59)"/></svg>